# xmcd CD database file
#
# Track frame offsets:
#	150
#	13992
#	28300
#	38450
#	50180
#	64352
#	77015
#	87635
#	100855
#	112810
#	125652
#	139835
#	149312
#	163647
#	173730
#	187437
#	199530
#	211410
#	224355
#	236845
#
# Disc length: 3287 seconds
#
# Revision: 1
# Processed by: cddbd v1.4PL0 Copyright (c) Steve Scherf et al.
# Submitted via: CDex 1.40Release
#
DISCID=330cd514
DTITLE=Charlie Pride  - I'm Just Me
DYEAR=1994
DGENRE=Country
TTITLE0=All I Have To Offer You Is Me
TTITLE1=Afraid Of Losing You Again
TTITLE2=Is Anybody Goin' To San Antone
TTITLE3=Wonder Could I Live There Anymore
TTITLE4=I Can't Believe That You've Stopped Loving Me
TTITLE5=I'd Rather Love You
TTITLE6=I'm Just Me
TTITLE7=Kiss An Angel Good Morning
TTITLE8=It's Gonna Take A Little Bit Longer
TTITLE9=She's Too Good To Be True
TTITLE10=A Shoulder To Cry On
TTITLE11=Don't Fight The Feelings Of Love
TTITLE12=Amazing Love
TTITLE13=Then Who Am I
TTITLE14=Hope You're Feelin' Me (Like I'm Feelin' You)
TTITLE15=My Eyes Can Only See As Far As You
TTITLE16=She's Just An Old Love Turned Memory
TTITLE17=I'll Be Leaving Alone
TTITLE18=More To Me
TTITLE19=Someone Loves You Honey
EXTD=YEAR: 1994 ID3G: 2
EXTT0=
EXTT1=
EXTT2=
EXTT3=
EXTT4=
EXTT5=
EXTT6=
EXTT7=
EXTT8=
EXTT9=
EXTT10=
EXTT11=
EXTT12=
EXTT13=
EXTT14=
EXTT15=
EXTT16=
EXTT17=
EXTT18=
EXTT19=
PLAYORDER=
